<?xml version="1.0" encoding="UTF-8" standalone="no"?>
<!-- Created with Inkscape (http://www.inkscape.org/) -->

<svg
   xmlns:dc="http://purl.org/dc/elements/1.1/"
   xmlns:cc="http://creativecommons.org/ns#"
   xmlns:rdf="http://www.w3.org/1999/02/22-rdf-syntax-ns#"
   xmlns:svg="http://www.w3.org/2000/svg"
   xmlns="http://www.w3.org/2000/svg"
   xmlns:sodipodi="http://sodipodi.sourceforge.net/DTD/sodipodi-0.dtd"
   xmlns:inkscape="http://www.inkscape.org/namespaces/inkscape"
   width="640px"
   height="480px"
   id="svg2985"
   version="1.1"
   inkscape:version="0.48.3.1 r9886"
   sodipodi:docname="face-talking-10.svg">
  <defs
     id="defs2987" />
  <sodipodi:namedview
     id="base"
     pagecolor="#ffffff"
     bordercolor="#666666"
     borderopacity="1.0"
     inkscape:pageopacity="0.0"
     inkscape:pageshadow="2"
     inkscape:zoom="70.120125"
     inkscape:cx="390.64563"
     inkscape:cy="163.71354"
     inkscape:current-layer="layer1"
     inkscape:document-units="px"
     showgrid="false"
     inkscape:window-width="1920"
     inkscape:window-height="1061"
     inkscape:window-x="1280"
     inkscape:window-y="19"
     inkscape:window-maximized="0" />
  <metadata
     id="metadata2990">
    <rdf:RDF>
      <cc:Work
         rdf:about="">
        <dc:format>image/svg+xml</dc:format>
        <dc:type
           rdf:resource="http://purl.org/dc/dcmitype/StillImage" />
        <dc:title />
      </cc:Work>
    </rdf:RDF>
  </metadata>
  <g
     id="layer1"
     inkscape:label="Layer 1"
     inkscape:groupmode="layer">
    <path
       sodipodi:type="arc"
       style="fill:#00ee00;stroke:none;stroke-width:10.98337936;stroke-linecap:butt;stroke-linejoin:miter;stroke-miterlimit:4;stroke-opacity:1;stroke-dasharray:none"
       id="path2997"
       sodipodi:cx="272.03192"
       sodipodi:cy="249.27304"
       sodipodi:rx="181.67731"
       sodipodi:ry="181.67731"
       d="m 453.70923,249.27304 a 181.67731,181.67731 0 1 1 -363.354616,0 181.67731,181.67731 0 1 1 363.354616,0 z"
       transform="matrix(1.2320434,0,0,1.2320434,-42.470757,-69.781891)" />
    <path
       sodipodi:type="arc"
       style="fill:#8888ff;stroke:none;stroke-width:10.98337936;stroke-linecap:butt;stroke-linejoin:miter;stroke-miterlimit:4;stroke-opacity:1;stroke-dasharray:none"
       id="path2997-6"
       sodipodi:cx="272.03192"
       sodipodi:cy="249.27304"
       sodipodi:rx="181.67731"
       sodipodi:ry="181.67731"
       d="m 453.70923,249.27304 a 181.67731,181.67731 0 1 1 -363.354616,0 181.67731,181.67731 0 1 1 363.354616,0 z"
       transform="matrix(0.20104128,0,0,0.20104128,148.60822,120.74399)" />
    <path
       sodipodi:type="arc"
       style="fill:#8888ff;stroke:none;stroke-width:10.98337936;stroke-linecap:butt;stroke-linejoin:miter;stroke-miterlimit:4;stroke-opacity:1;stroke-dasharray:none"
       id="path2997-6-0"
       sodipodi:cx="272.03192"
       sodipodi:cy="249.27304"
       sodipodi:rx="181.67731"
       sodipodi:ry="181.67731"
       d="m 453.70923,249.27304 a 181.67731,181.67731 0 1 1 -363.354616,0 181.67731,181.67731 0 1 1 363.354616,0 z"
       transform="matrix(0.20104128,0,0,0.20104128,327.38128,120.74399)" />
    <path
       id="path3803-4"
       style="fill:#ff8888;stroke:#8888ff;stroke-width:1.89999998;stroke-linecap:butt;stroke-linejoin:miter;stroke-miterlimit:4;stroke-opacity:1;stroke-dasharray:none"
       d="m 358.35299,293.13558 c -13.63541,-3.51976 -17.85209,-5.98766 -36.97146,-6.94334 -19.85989,-0.9927 -43.43044,1.48052 -55.48082,1.48152 -17.60519,0.002 -28.88356,-3.54809 -42.85992,3.87351 -14.5341,7.71777 -25.26774,24.35596 -25.26774,24.35596 0,0 7.79478,16.58156 26.26883,26.9657 12.74607,7.16448 23.17094,9.65255 37.78082,9.65384 12.05038,0.001 41.71564,-2.76012 61.28933,-6.26316 19.76477,-3.53724 22.90545,-2.85515 36.00338,-10.81568 10.56981,-6.42401 26.78885,-23.09035 26.78885,-23.09035 0,0 -13.91585,-15.69825 -27.55127,-19.218 z"
       inkscape:connector-curvature="0"
       sodipodi:nodetypes="sssscsssscs" />
  </g>
</svg>
