<?xml version="1.0" encoding="UTF-8" standalone="no"?>
<!-- Created with Inkscape (http://www.inkscape.org/) -->

<svg
   xmlns:dc="http://purl.org/dc/elements/1.1/"
   xmlns:cc="http://creativecommons.org/ns#"
   xmlns:rdf="http://www.w3.org/1999/02/22-rdf-syntax-ns#"
   xmlns:svg="http://www.w3.org/2000/svg"
   xmlns="http://www.w3.org/2000/svg"
   xmlns:sodipodi="http://sodipodi.sourceforge.net/DTD/sodipodi-0.dtd"
   xmlns:inkscape="http://www.inkscape.org/namespaces/inkscape"
   width="640px"
   height="480px"
   id="svg2985"
   version="1.1"
   inkscape:version="0.48.3.1 r9886"
   sodipodi:docname="face-talking-7.svg">
  <defs
     id="defs2987" />
  <sodipodi:namedview
     id="base"
     pagecolor="#ffffff"
     bordercolor="#666666"
     borderopacity="1.0"
     inkscape:pageopacity="0.0"
     inkscape:pageshadow="2"
     inkscape:zoom="8.7650156"
     inkscape:cx="380.51508"
     inkscape:cy="182.59789"
     inkscape:current-layer="layer1"
     inkscape:document-units="px"
     showgrid="false"
     inkscape:window-width="1920"
     inkscape:window-height="1061"
     inkscape:window-x="1280"
     inkscape:window-y="19"
     inkscape:window-maximized="0" />
  <metadata
     id="metadata2990">
    <rdf:RDF>
      <cc:Work
         rdf:about="">
        <dc:format>image/svg+xml</dc:format>
        <dc:type
           rdf:resource="http://purl.org/dc/dcmitype/StillImage" />
        <dc:title />
      </cc:Work>
    </rdf:RDF>
  </metadata>
  <g
     id="layer1"
     inkscape:label="Layer 1"
     inkscape:groupmode="layer">
    <path
       sodipodi:type="arc"
       style="fill:#00ee00;stroke:none;stroke-width:10.98337936;stroke-linecap:butt;stroke-linejoin:miter;stroke-miterlimit:4;stroke-opacity:1;stroke-dasharray:none"
       id="path2997"
       sodipodi:cx="272.03192"
       sodipodi:cy="249.27304"
       sodipodi:rx="181.67731"
       sodipodi:ry="181.67731"
       d="m 453.70923,249.27304 a 181.67731,181.67731 0 1 1 -363.354616,0 181.67731,181.67731 0 1 1 363.354616,0 z"
       transform="matrix(1.2320434,0,0,1.2320434,-42.470757,-69.781891)" />
    <path
       sodipodi:type="arc"
       style="fill:#8888ff;stroke:none;stroke-width:10.98337936;stroke-linecap:butt;stroke-linejoin:miter;stroke-miterlimit:4;stroke-opacity:1;stroke-dasharray:none"
       id="path2997-6"
       sodipodi:cx="272.03192"
       sodipodi:cy="249.27304"
       sodipodi:rx="181.67731"
       sodipodi:ry="181.67731"
       d="m 453.70923,249.27304 a 181.67731,181.67731 0 1 1 -363.354616,0 181.67731,181.67731 0 1 1 363.354616,0 z"
       transform="matrix(0.20104128,0,0,0.20104128,148.60822,120.74399)" />
    <path
       sodipodi:type="arc"
       style="fill:#8888ff;stroke:none;stroke-width:10.98337936;stroke-linecap:butt;stroke-linejoin:miter;stroke-miterlimit:4;stroke-opacity:1;stroke-dasharray:none"
       id="path2997-6-0"
       sodipodi:cx="272.03192"
       sodipodi:cy="249.27304"
       sodipodi:rx="181.67731"
       sodipodi:ry="181.67731"
       d="m 453.70923,249.27304 a 181.67731,181.67731 0 1 1 -363.354616,0 181.67731,181.67731 0 1 1 363.354616,0 z"
       transform="matrix(0.20104128,0,0,0.20104128,327.38128,120.74399)" />
    <path
       id="path3803-4"
       style="fill:#ff8888;stroke:#8888ff;stroke-width:1.89999998;stroke-linecap:butt;stroke-linejoin:miter;stroke-miterlimit:4;stroke-opacity:1;stroke-dasharray:none"
       d="m 352.54448,284.74551 c -13.63541,-3.51976 -15.27053,-6.63305 -34.3899,-7.58873 -19.85989,-0.9927 -33.74959,-1.74643 -45.79997,-1.74543 -17.60519,0.002 -19.20271,4.84198 -35.11524,9.03663 -15.91254,4.19464 -32.04434,28.2283 -32.04434,28.2283 0,0 13.2806,20.4539 31.75465,30.83804 12.74607,7.16448 15.42626,10.29794 30.03614,10.29923 12.05038,10e-4 38.48869,3.69378 58.06238,0.19074 19.76477,-3.53724 20.32389,-4.14593 33.42182,-12.10646 10.56981,-6.42401 22.27112,-29.54424 22.27112,-29.54424 0,0 -14.56124,-24.08833 -28.19666,-27.60808 z"
       inkscape:connector-curvature="0"
       sodipodi:nodetypes="sssscsssscs" />
  </g>
</svg>
