<?xml version="1.0" encoding="UTF-8" standalone="no"?>
<!-- Created with Inkscape (http://www.inkscape.org/) -->

<svg
   xmlns:dc="http://purl.org/dc/elements/1.1/"
   xmlns:cc="http://creativecommons.org/ns#"
   xmlns:rdf="http://www.w3.org/1999/02/22-rdf-syntax-ns#"
   xmlns:svg="http://www.w3.org/2000/svg"
   xmlns="http://www.w3.org/2000/svg"
   xmlns:sodipodi="http://sodipodi.sourceforge.net/DTD/sodipodi-0.dtd"
   xmlns:inkscape="http://www.inkscape.org/namespaces/inkscape"
   width="640px"
   height="480px"
   id="svg2985"
   version="1.1"
   inkscape:version="0.48.3.1 r9886"
   sodipodi:docname="face-talking-8.svg">
  <defs
     id="defs2987" />
  <sodipodi:namedview
     id="base"
     pagecolor="#ffffff"
     bordercolor="#666666"
     borderopacity="1.0"
     inkscape:pageopacity="0.0"
     inkscape:pageshadow="2"
     inkscape:zoom="17.530031"
     inkscape:cx="357.02663"
     inkscape:cy="162.00275"
     inkscape:current-layer="layer1"
     inkscape:document-units="px"
     showgrid="false"
     inkscape:window-width="1920"
     inkscape:window-height="1061"
     inkscape:window-x="1280"
     inkscape:window-y="19"
     inkscape:window-maximized="0" />
  <metadata
     id="metadata2990">
    <rdf:RDF>
      <cc:Work
         rdf:about="">
        <dc:format>image/svg+xml</dc:format>
        <dc:type
           rdf:resource="http://purl.org/dc/dcmitype/StillImage" />
        <dc:title />
      </cc:Work>
    </rdf:RDF>
  </metadata>
  <g
     id="layer1"
     inkscape:label="Layer 1"
     inkscape:groupmode="layer">
    <path
       sodipodi:type="arc"
       style="fill:#00ee00;stroke:none;stroke-width:10.98337936;stroke-linecap:butt;stroke-linejoin:miter;stroke-miterlimit:4;stroke-opacity:1;stroke-dasharray:none"
       id="path2997"
       sodipodi:cx="272.03192"
       sodipodi:cy="249.27304"
       sodipodi:rx="181.67731"
       sodipodi:ry="181.67731"
       d="m 453.70923,249.27304 a 181.67731,181.67731 0 1 1 -363.354616,0 181.67731,181.67731 0 1 1 363.354616,0 z"
       transform="matrix(1.2320434,0,0,1.2320434,-42.470757,-69.781891)" />
    <path
       sodipodi:type="arc"
       style="fill:#8888ff;stroke:none;stroke-width:10.98337936;stroke-linecap:butt;stroke-linejoin:miter;stroke-miterlimit:4;stroke-opacity:1;stroke-dasharray:none"
       id="path2997-6"
       sodipodi:cx="272.03192"
       sodipodi:cy="249.27304"
       sodipodi:rx="181.67731"
       sodipodi:ry="181.67731"
       d="m 453.70923,249.27304 a 181.67731,181.67731 0 1 1 -363.354616,0 181.67731,181.67731 0 1 1 363.354616,0 z"
       transform="matrix(0.20104128,0,0,0.20104128,148.60822,120.74399)" />
    <path
       sodipodi:type="arc"
       style="fill:#8888ff;stroke:none;stroke-width:10.98337936;stroke-linecap:butt;stroke-linejoin:miter;stroke-miterlimit:4;stroke-opacity:1;stroke-dasharray:none"
       id="path2997-6-0"
       sodipodi:cx="272.03192"
       sodipodi:cy="249.27304"
       sodipodi:rx="181.67731"
       sodipodi:ry="181.67731"
       d="m 453.70923,249.27304 a 181.67731,181.67731 0 1 1 -363.354616,0 181.67731,181.67731 0 1 1 363.354616,0 z"
       transform="matrix(0.20104128,0,0,0.20104128,327.38128,120.74399)" />
    <path
       id="path3803-4"
       style="fill:#ff8888;stroke:#8888ff;stroke-width:1.89999998;stroke-linecap:butt;stroke-linejoin:miter;stroke-miterlimit:4;stroke-opacity:1;stroke-dasharray:none"
       d="m 363.63314,347.70634 c -13.09793,7.96053 -14.30244,7.92383 -34.06721,11.46107 -19.57369,3.50304 -46.012,-0.18974 -58.06238,-0.19074 -14.60988,-0.001 -27.61631,-8.29787 -40.36238,-15.46235 -18.47405,-10.38414 -24.97805,-30.83804 -24.97805,-30.83804 0,0 10.64598,-29.19678 26.55852,-33.39142 15.91253,-4.19465 18.15544,-9.68046 35.76063,-9.68202 12.05038,-0.001 30.45781,-0.53805 50.3177,0.45465 19.11937,0.95568 26.563,6.65053 40.19841,10.17029 13.63542,3.51975 21.74277,32.12581 21.74277,32.12581 0,0 -6.5382,28.92874 -17.10801,35.35275 z"
       inkscape:connector-curvature="0"
       sodipodi:nodetypes="sssscsssscs" />
  </g>
</svg>
